<svg width="52" height="53" viewBox="0 0 52 53" fill="none" xmlns="http://www.w3.org/2000/svg">
<path d="M26 0.931152L50.7275 18.8967L41.2824 47.9656H10.7176L1.27253 18.8967L26 0.931152Z" fill="#0D1B2A"/>
<path fill-rule="evenodd" clip-rule="evenodd" d="M19.7204 29.8182C20.5018 29.0368 21.5616 28.5978 22.6667 28.5978H29.3333C30.4384 28.5978 31.4982 29.0368 32.2796 29.8182C33.061 30.5996 33.5 31.6594 33.5 32.7644V34.4311C33.5 34.8913 33.1269 35.2644 32.6667 35.2644C32.2064 35.2644 31.8333 34.8913 31.8333 34.4311V32.7644C31.8333 32.1014 31.5699 31.4655 31.1011 30.9967C30.6323 30.5278 29.9964 30.2644 29.3333 30.2644H22.6667C22.0036 30.2644 21.3677 30.5278 20.8989 30.9967C20.4301 31.4655 20.1667 32.1014 20.1667 32.7644V34.4311C20.1667 34.8913 19.7936 35.2644 19.3333 35.2644C18.8731 35.2644 18.5 34.8913 18.5 34.4311V32.7644C18.5 31.6594 18.939 30.5996 19.7204 29.8182Z" fill="white"/>
<path fill-rule="evenodd" clip-rule="evenodd" d="M26.0002 20.2644C24.6195 20.2644 23.5002 21.3837 23.5002 22.7644C23.5002 24.1452 24.6195 25.2644 26.0002 25.2644C27.3809 25.2644 28.5002 24.1452 28.5002 22.7644C28.5002 21.3837 27.3809 20.2644 26.0002 20.2644ZM21.8335 22.7644C21.8335 20.4633 23.699 18.5978 26.0002 18.5978C28.3013 18.5978 30.1668 20.4633 30.1668 22.7644C30.1668 25.0656 28.3013 26.9311 26.0002 26.9311C23.699 26.9311 21.8335 25.0656 21.8335 22.7644Z" fill="white"/>
</svg>
