<svg width="20" height="20" viewBox="0 0 20 20" fill="none" xmlns="http://www.w3.org/2000/svg">
<path d="M14.1665 2.78333C15.4234 3.50904 16.469 4.55043 17.1997 5.80441C17.9304 7.05839 18.321 8.48147 18.3327 9.93278C18.3444 11.3841 17.9769 12.8133 17.2665 14.0789C16.5561 15.3445 15.5275 16.4027 14.2825 17.1486C13.0375 17.8945 11.6193 18.3023 10.1683 18.3317C8.7172 18.3611 7.28363 18.011 6.00947 17.316C4.7353 16.6211 3.66473 15.6054 2.90373 14.3696C2.14272 13.1337 1.71768 11.7206 1.67067 10.27L1.6665 9.99999L1.67067 9.72999C1.71734 8.29082 2.13613 6.88829 2.8862 5.65915C3.63628 4.43001 4.69205 3.4162 5.95058 2.71656C7.20911 2.01692 8.62746 1.65532 10.0673 1.66702C11.5072 1.67872 12.9195 2.06332 14.1665 2.78333ZM13.089 7.74416C12.9455 7.60068 12.7546 7.51449 12.5521 7.50175C12.3496 7.48902 12.1493 7.55062 11.989 7.67499L11.9107 7.74416L9.1665 10.4875L8.089 9.41083L8.01067 9.34166C7.85032 9.21737 7.65015 9.15585 7.44767 9.16862C7.2452 9.18139 7.05434 9.26759 6.91089 9.41104C6.76744 9.5545 6.68124 9.74536 6.66847 9.94783C6.65569 10.1503 6.71722 10.3505 6.8415 10.5108L6.91067 10.5892L8.57734 12.2558L8.65567 12.325C8.80182 12.4384 8.98153 12.4999 9.1665 12.4999C9.35148 12.4999 9.53119 12.4384 9.67734 12.325L9.75567 12.2558L13.089 8.92249L13.1582 8.84416C13.2825 8.68382 13.3441 8.48361 13.3314 8.28109C13.3187 8.07857 13.2325 7.88765 13.089 7.74416Z" fill="#FFFFFF"/>
</svg>
