<svg width="12" height="12" viewBox="0 0 12 12" fill="none" xmlns="http://www.w3.org/2000/svg">
<path d="M7.06 5.99999L11.48 1.57999C11.5537 1.51133 11.6128 1.42853 11.6538 1.33653C11.6948 1.24453 11.7168 1.14521 11.7186 1.04451C11.7204 0.943809 11.7018 0.84378 11.6641 0.750391C11.6264 0.657003 11.5703 0.572169 11.499 0.500951C11.4278 0.429732 11.343 0.373587 11.2496 0.335866C11.1562 0.298145 11.0562 0.27962 10.9555 0.281397C10.8548 0.283174 10.7555 0.305216 10.6635 0.346208C10.5715 0.3872 10.4887 0.446302 10.42 0.519989L6 4.93999L1.58 0.519989C1.43782 0.387509 1.24978 0.315385 1.05548 0.318814C0.861176 0.322242 0.67579 0.400954 0.538377 0.538367C0.400964 0.67578 0.322252 0.861165 0.318824 1.05547C0.315396 1.24977 0.387519 1.43781 0.519999 1.57999L4.94 5.99999L0.519999 10.42C0.379549 10.5606 0.300659 10.7512 0.300659 10.95C0.300659 11.1487 0.379549 11.3394 0.519999 11.48C0.660624 11.6204 0.851249 11.6993 1.05 11.6993C1.24875 11.6993 1.43937 11.6204 1.58 11.48L6 7.05999L10.42 11.48C10.5606 11.6204 10.7512 11.6993 10.95 11.6993C11.1488 11.6993 11.3394 11.6204 11.48 11.48C11.6204 11.3394 11.6993 11.1487 11.6993 10.95C11.6993 10.7512 11.6204 10.5606 11.48 10.42L7.06 5.99999Z" fill="#37404C"/>
</svg>
