<svg width="21" height="20" viewBox="0 0 21 20" fill="none" xmlns="http://www.w3.org/2000/svg">
<g clip-path="url(#clip0_140_1161)">
<path d="M19.9342 7.5575L13.6134 1.23584C12.8311 0.455835 11.7715 0.0178223 10.6667 0.0178223C9.56203 0.0178223 8.50238 0.455835 7.72009 1.23584L1.39926 7.5575C1.16628 7.78899 0.981566 8.06442 0.855827 8.36782C0.730087 8.67123 0.665823 8.99657 0.666758 9.325V17.5058C0.666758 18.1689 0.93015 18.8048 1.39899 19.2736C1.86783 19.7424 2.50372 20.0058 3.16676 20.0058H18.1667C18.8298 20.0058 19.4657 19.7424 19.9345 19.2736C20.4033 18.8048 20.6667 18.1689 20.6667 17.5058V9.325C20.6677 8.99657 20.6034 8.67123 20.4777 8.36782C20.3519 8.06442 20.1672 7.78899 19.9342 7.5575ZM13.1667 18.3392H8.16675V15.0608C8.16675 14.3978 8.43014 13.7619 8.89898 13.2931C9.36782 12.8242 10.0037 12.5608 10.6667 12.5608C11.3298 12.5608 11.9657 12.8242 12.4345 13.2931C12.9034 13.7619 13.1667 14.3978 13.1667 15.0608V18.3392ZM19.0001 17.5058C19.0001 17.7268 18.9123 17.9388 18.756 18.0951C18.5997 18.2514 18.3878 18.3392 18.1667 18.3392H14.8334V15.0608C14.8334 13.9558 14.3944 12.896 13.613 12.1146C12.8316 11.3332 11.7718 10.8942 10.6667 10.8942C9.56168 10.8942 8.50188 11.3332 7.72047 12.1146C6.93907 12.896 6.50009 13.9558 6.50009 15.0608V18.3392H3.16676C2.94574 18.3392 2.73378 18.2514 2.5775 18.0951C2.42122 17.9388 2.33342 17.7268 2.33342 17.5058V9.325C2.3342 9.10415 2.42191 8.89249 2.57759 8.73584L8.89842 2.41668C9.36817 1.94912 10.004 1.68663 10.6667 1.68663C11.3295 1.68663 11.9653 1.94912 12.4351 2.41668L18.7559 8.73834C18.911 8.89437 18.9986 9.10502 19.0001 9.325V17.5058Z" fill="#4B5563"/>
</g>
<defs>
<clipPath id="clip0_140_1161">
<rect width="20" height="20" fill="white" transform="translate(0.666748)"/>
</clipPath>
</defs>
</svg>
