<svg width="24" height="24" viewBox="0 0 24 24" fill="none" xmlns="http://www.w3.org/2000/svg">
<path d="M19.9994 18.75H3.99944C3.86839 18.7496 3.73967 18.7153 3.62577 18.6505C3.51188 18.5856 3.41669 18.4924 3.34944 18.38C3.28551 18.2653 3.25195 18.1362 3.25195 18.005C3.25195 17.8737 3.28551 17.7446 3.34944 17.63L11.3494 3.62997C11.4206 3.5227 11.5172 3.43472 11.6306 3.37385C11.744 3.31298 11.8707 3.28113 11.9994 3.28113C12.1282 3.28113 12.2549 3.31298 12.3683 3.37385C12.4817 3.43472 12.5783 3.5227 12.6494 3.62997L20.6494 17.63C20.7134 17.7446 20.7469 17.8737 20.7469 18.005C20.7469 18.1362 20.7134 18.2653 20.6494 18.38C20.5822 18.4924 20.487 18.5856 20.3731 18.6505C20.2592 18.7153 20.1305 18.7496 19.9994 18.75ZM5.28944 17.25H18.7094L11.9994 5.50997L5.28944 17.25Z" fill="#B91C1C"/>
<path d="M12 13.25C11.8019 13.2474 11.6126 13.1676 11.4725 13.0275C11.3324 12.8874 11.2526 12.6981 11.25 12.5V9C11.25 8.80109 11.329 8.61032 11.4697 8.46967C11.6103 8.32902 11.8011 8.25 12 8.25C12.1989 8.25 12.3897 8.32902 12.5303 8.46967C12.671 8.61032 12.75 8.80109 12.75 9V12.5C12.7474 12.6981 12.6676 12.8874 12.5275 13.0275C12.3874 13.1676 12.1981 13.2474 12 13.25Z" fill="#B91C1C"/>
<path d="M12 16.25C11.8019 16.2474 11.6126 16.1676 11.4725 16.0275C11.3324 15.8874 11.2526 15.6981 11.25 15.5V15C11.25 14.8011 11.329 14.6103 11.4697 14.4697C11.6103 14.329 11.8011 14.25 12 14.25C12.1989 14.25 12.3897 14.329 12.5303 14.4697C12.671 14.6103 12.75 14.8011 12.75 15V15.5C12.7474 15.6981 12.6676 15.8874 12.5275 16.0275C12.3874 16.1676 12.1981 16.2474 12 16.25Z" fill="#B91C1C"/>
</svg>
