<svg width="20" height="20" viewBox="0 0 20 20" fill="none" xmlns="http://www.w3.org/2000/svg">
<path d="M5.25 16.25C4.83333 16.25 4.47917 16.1042 4.1875 15.8125C3.89583 15.5208 3.75 15.1667 3.75 14.75V12.5H5V14.75C5 14.8055 5.02778 14.8611 5.08333 14.9167C5.13889 14.9722 5.19444 15 5.25 15H14.75C14.8056 15 14.8611 14.9722 14.9167 14.9167C14.9722 14.8611 15 14.8055 15 14.75V12.5H16.25V14.75C16.25 15.1667 16.1042 15.5208 15.8125 15.8125C15.5208 16.1042 15.1667 16.25 14.75 16.25H5.25ZM10 13.0208L6.4375 9.45832L7.3125 8.54166L9.375 10.6042V3.60416H10.625V10.6042L12.6875 8.54166L13.5625 9.45832L10 13.0208Z" fill="#1E1E1E"/>
</svg>
