<svg width="23" height="22" viewBox="0 0 23 22" fill="none" xmlns="http://www.w3.org/2000/svg">
<rect x="0.5" width="22" height="22" rx="11" fill="#007AFF"/>
<path d="M11.5003 9.24999C11.0362 9.24999 10.5911 9.43436 10.2629 9.76255C9.9347 10.0907 9.75033 10.5359 9.75033 11C9.75033 11.4641 9.9347 11.9092 10.2629 12.2374C10.5911 12.5656 11.0362 12.75 11.5003 12.75C11.9645 12.75 12.4096 12.5656 12.7378 12.2374C13.066 11.9092 13.2503 11.4641 13.2503 11C13.2503 10.5359 13.066 10.0907 12.7378 9.76255C12.4096 9.43436 11.9645 9.24999 11.5003 9.24999ZM11.5003 8.08332C12.2739 8.08332 13.0157 8.39061 13.5627 8.9376C14.1097 9.48458 14.417 10.2264 14.417 11C14.417 11.7735 14.1097 12.5154 13.5627 13.0624C13.0157 13.6094 12.2739 13.9167 11.5003 13.9167C10.7268 13.9167 9.98491 13.6094 9.43793 13.0624C8.89095 12.5154 8.58366 11.7735 8.58366 11C8.58366 10.2264 8.89095 9.48458 9.43793 8.9376C9.98491 8.39061 10.7268 8.08332 11.5003 8.08332ZM15.292 7.93749C15.292 8.13088 15.2152 8.31634 15.0784 8.45309C14.9417 8.58983 14.7562 8.66666 14.5628 8.66666C14.3694 8.66666 14.184 8.58983 14.0472 8.45309C13.9105 8.31634 13.8337 8.13088 13.8337 7.93749C13.8337 7.7441 13.9105 7.55864 14.0472 7.42189C14.184 7.28515 14.3694 7.20832 14.5628 7.20832C14.7562 7.20832 14.9417 7.28515 15.0784 7.42189C15.2152 7.55864 15.292 7.7441 15.292 7.93749ZM11.5003 6.33332C10.0572 6.33332 9.82149 6.33741 9.15008 6.36716C8.69274 6.38874 8.38591 6.44999 8.10124 6.56082C7.86302 6.64829 7.64765 6.78848 7.47124 6.97091C7.28866 7.14731 7.14828 7.36266 7.06058 7.60091C6.94974 7.88674 6.88849 8.19299 6.86749 8.64974C6.83716 9.29374 6.83308 9.51891 6.83308 11C6.83308 12.4437 6.83716 12.6788 6.86691 13.3502C6.88849 13.807 6.94974 14.1144 7.05999 14.3985C7.15916 14.6522 7.27583 14.8348 7.46949 15.0285C7.66608 15.2245 7.84866 15.3417 8.09949 15.4386C8.38766 15.55 8.69449 15.6118 9.14949 15.6328C9.79349 15.6632 10.0187 15.6667 11.4997 15.6667C12.9435 15.6667 13.1786 15.6626 13.85 15.6328C14.3062 15.6112 14.613 15.55 14.8982 15.4397C15.1363 15.3518 15.3515 15.2117 15.5282 15.0297C15.7248 14.8337 15.8421 14.6511 15.9389 14.3997C16.0497 14.1127 16.1116 13.8058 16.1326 13.3497C16.1629 12.7062 16.1664 12.4805 16.1664 11C16.1664 9.55682 16.1623 9.32116 16.1326 8.64974C16.111 8.19357 16.0492 7.88557 15.9389 7.60091C15.851 7.36292 15.7109 7.14765 15.5288 6.97091C15.3525 6.78823 15.1371 6.64784 14.8988 6.56024C14.613 6.44941 14.3062 6.38816 13.85 6.36716C13.2066 6.33682 12.982 6.33332 11.5003 6.33332ZM11.5003 5.16666C13.0852 5.16666 13.283 5.17249 13.9054 5.20166C14.5261 5.23082 14.9496 5.32824 15.3212 5.47291C15.7062 5.62107 16.0305 5.82174 16.3548 6.14549C16.6514 6.4371 16.881 6.78983 17.0274 7.17916C17.1715 7.55074 17.2695 7.97424 17.2987 8.59549C17.3261 9.21732 17.3337 9.41507 17.3337 11C17.3337 12.5849 17.3278 12.7827 17.2987 13.4045C17.2695 14.0257 17.1715 14.4487 17.0274 14.8208C16.8814 15.2104 16.6518 15.5632 16.3548 15.8545C16.0631 16.151 15.7104 16.3805 15.3212 16.5271C14.9496 16.6712 14.5261 16.7692 13.9054 16.7983C13.283 16.8257 13.0852 16.8333 11.5003 16.8333C9.91541 16.8333 9.71766 16.8275 9.09524 16.7983C8.47458 16.7692 8.05166 16.6712 7.67949 16.5271C7.29002 16.3809 6.93722 16.1514 6.64583 15.8545C6.34916 15.5629 6.11964 15.2102 5.97324 14.8208C5.82858 14.4492 5.73116 14.0257 5.70199 13.4045C5.67399 12.7827 5.66699 12.5849 5.66699 11C5.66699 9.41507 5.67283 9.21732 5.70199 8.59549C5.73116 7.97366 5.82858 7.55132 5.97324 7.17916C6.11921 6.78959 6.34879 6.43676 6.64583 6.14549C6.9373 5.84871 7.29008 5.61917 7.67949 5.47291C8.05108 5.32824 8.47399 5.23082 9.09524 5.20166C9.71766 5.17424 9.91541 5.16666 11.5003 5.16666Z" fill="white"/>
</svg>
