<svg width="23" height="22" viewBox="0 0 23 22" fill="none" xmlns="http://www.w3.org/2000/svg">
<rect x="0.5" width="22" height="22" rx="11" fill="#007AFF"/>
<path d="M8.54818 6.91667C8.54802 7.22609 8.42496 7.52277 8.20606 7.74146C7.98715 7.96014 7.69035 8.08291 7.38093 8.08275C7.07151 8.0826 6.77482 7.95953 6.55614 7.74063C6.33746 7.52173 6.21469 7.22492 6.21484 6.9155C6.215 6.60608 6.33806 6.3094 6.55697 6.09072C6.77587 5.87203 7.07267 5.74927 7.38209 5.74942C7.69151 5.74958 7.9882 5.87264 8.20688 6.09154C8.42556 6.31044 8.54833 6.60725 8.54818 6.91667ZM8.58318 8.94667H6.24984V16.25H8.58318V8.94667ZM12.2698 8.94667H9.94818V16.25H12.2465V12.4175C12.2465 10.2825 15.029 10.0842 15.029 12.4175V16.25H17.3332V11.6242C17.3332 8.025 13.2148 8.15917 12.2465 9.92667L12.2698 8.94667Z" fill="white"/>
</svg>
