<svg width="21" height="20" viewBox="0 0 21 20" fill="none" xmlns="http://www.w3.org/2000/svg">
<g clip-path="url(#clip0_140_1182)">
<path d="M18.2959 16.4508C19.8263 14.6499 20.6666 12.3634 20.6666 10C20.6666 7.63657 19.8263 5.35012 18.2959 3.54917L19.0125 2.8325C19.1688 2.67613 19.2565 2.4641 19.2564 2.24304C19.2564 2.02198 19.1685 1.81001 19.0121 1.65375C18.8557 1.49749 18.6437 1.40975 18.4226 1.40983C18.2016 1.40991 17.9896 1.4978 17.8334 1.65417L17.1167 2.37083C15.3157 0.840357 13.0293 5.34058e-05 10.6659 5.34058e-05C8.30243 5.34058e-05 6.01599 0.840357 4.21503 2.37083L3.49836 1.65417C3.34109 1.50248 3.13052 1.41863 2.91203 1.42068C2.69353 1.42273 2.48458 1.51052 2.33018 1.66514C2.17578 1.81975 2.08829 2.02883 2.08654 2.24733C2.0848 2.46583 2.16895 2.67627 2.32086 2.83333L3.03753 3.55C1.50705 5.35096 0.666748 7.6374 0.666748 10.0008C0.666748 12.3643 1.50705 14.6507 3.03753 16.4517L2.32086 17.1683C2.24133 17.2453 2.17791 17.3373 2.13431 17.439C2.09071 17.5407 2.0678 17.65 2.06691 17.7607C2.06603 17.8713 2.08719 17.981 2.12917 18.0834C2.17114 18.1858 2.23308 18.2788 2.31138 18.357C2.38968 18.4352 2.48277 18.497 2.58521 18.5388C2.68765 18.5806 2.7974 18.6017 2.90805 18.6006C3.01869 18.5996 3.12803 18.5765 3.22966 18.5328C3.3313 18.489 3.42321 18.4255 3.50003 18.3458L4.2167 17.6292C6.01765 19.1596 8.3041 19.9999 10.6675 19.9999C13.031 19.9999 15.3174 19.1596 17.1184 17.6292L17.835 18.3458C17.9923 18.4975 18.2029 18.5814 18.4214 18.5793C18.6399 18.5773 18.8488 18.4895 19.0032 18.3349C19.1576 18.1802 19.2451 17.9712 19.2468 17.7527C19.2486 17.5342 19.1644 17.3237 19.0125 17.1667L18.2959 16.4508ZM19 10C19.0016 11.9221 18.3352 13.7849 17.115 15.27L14.1392 12.2942C14.5918 11.6147 14.8333 10.8165 14.8333 10C14.8333 9.18355 14.5918 8.38534 14.1392 7.70583L17.115 4.73C18.3352 6.21506 19.0016 8.07794 19 10ZM8.1667 10C8.1667 9.50555 8.31332 9.0222 8.58802 8.61107C8.86272 8.19995 9.25317 7.87952 9.70999 7.6903C10.1668 7.50108 10.6695 7.45157 11.1544 7.54804C11.6394 7.6445 12.0848 7.8826 12.4345 8.23223C12.7841 8.58186 13.0222 9.02732 13.1187 9.51227C13.2151 9.99723 13.1656 10.4999 12.9764 10.9567C12.7872 11.4135 12.4667 11.804 12.0556 12.0787C11.6445 12.3534 11.1611 12.5 10.6667 12.5C10.0037 12.5 9.36777 12.2366 8.89893 11.7678C8.43009 11.2989 8.1667 10.663 8.1667 10ZM10.6667 1.66667C12.5888 1.66513 14.4516 2.33146 15.9367 3.55167L12.9609 6.5275C12.2814 6.07488 11.4831 5.83338 10.6667 5.83338C9.85024 5.83338 9.05204 6.07488 8.37253 6.5275L5.39669 3.55167C6.88176 2.33146 8.74464 1.66513 10.6667 1.66667ZM2.33336 10C2.33183 8.07794 2.99815 6.21506 4.21836 4.73L7.19419 7.70583C6.74158 8.38534 6.50007 9.18355 6.50007 10C6.50007 10.8165 6.74158 11.6147 7.19419 12.2942L4.21836 15.27C2.99815 13.7849 2.33183 11.9221 2.33336 10ZM10.6667 18.3333C8.74464 18.3349 6.88176 17.6685 5.39669 16.4483L8.37253 13.4725C9.05204 13.9251 9.85024 14.1666 10.6667 14.1666C11.4831 14.1666 12.2814 13.9251 12.9609 13.4725L15.9367 16.4483C14.4516 17.6685 12.5888 18.3349 10.6667 18.3333Z" fill="#07003B"/>
</g>
<defs>
<clipPath id="clip0_140_1182">
<rect width="20" height="20" fill="white" transform="translate(0.666748)"/>
</clipPath>
</defs>
</svg>
