<svg width="20" height="20" viewBox="0 0 20 20" fill="none" xmlns="http://www.w3.org/2000/svg">
<path d="M14.9997 13.9584H13.333C13.1672 13.9584 13.0083 13.8925 12.8911 13.7753C12.7739 13.6581 12.708 13.4991 12.708 13.3334C12.708 13.1676 12.7739 13.0086 12.8911 12.8914C13.0083 12.7742 13.1672 12.7084 13.333 12.7084H14.9997C15.2759 12.7084 15.5409 12.5986 15.7362 12.4033C15.9316 12.2079 16.0413 11.943 16.0413 11.6667V8.33335C16.0413 8.05709 15.9316 7.79213 15.7362 7.59678C15.5409 7.40143 15.2759 7.29169 14.9997 7.29169H4.99967C4.72341 7.29169 4.45846 7.40143 4.2631 7.59678C4.06775 7.79213 3.95801 8.05709 3.95801 8.33335V11.6667C3.95801 11.943 4.06775 12.2079 4.2631 12.4033C4.45846 12.5986 4.72341 12.7084 4.99967 12.7084H6.66634C6.8321 12.7084 6.99107 12.7742 7.10828 12.8914C7.22549 13.0086 7.29134 13.1676 7.29134 13.3334C7.29134 13.4991 7.22549 13.6581 7.10828 13.7753C6.99107 13.8925 6.8321 13.9584 6.66634 13.9584H4.99967C4.39189 13.9584 3.80899 13.7169 3.37922 13.2871C2.94945 12.8574 2.70801 12.2745 2.70801 11.6667V8.33335C2.70801 7.72557 2.94945 7.14267 3.37922 6.7129C3.80899 6.28313 4.39189 6.04169 4.99967 6.04169H14.9997C15.6075 6.04169 16.1904 6.28313 16.6201 6.7129C17.0499 7.14267 17.2913 7.72557 17.2913 8.33335V11.6667C17.2913 12.2745 17.0499 12.8574 16.6201 13.2871C16.1904 13.7169 15.6075 13.9584 14.9997 13.9584Z" fill="#1E1E1E"/>
<path d="M13.3327 7.29168C13.1676 7.28952 13.0099 7.22298 12.8931 7.10623C12.7764 6.98949 12.7098 6.83177 12.7077 6.66668V3.95834H7.29102V6.66668C7.29102 6.83244 7.22517 6.99141 7.10796 7.10862C6.99075 7.22583 6.83178 7.29168 6.66602 7.29168C6.50026 7.29168 6.34128 7.22583 6.22407 7.10862C6.10686 6.99141 6.04102 6.83244 6.04102 6.66668V3.75001C6.04102 3.47374 6.15076 3.20879 6.34611 3.01344C6.54146 2.81809 6.80642 2.70834 7.08268 2.70834H12.916C13.1923 2.70834 13.4572 2.81809 13.6526 3.01344C13.8479 3.20879 13.9577 3.47374 13.9577 3.75001V6.66668C13.9555 6.83177 13.889 6.98949 13.7722 7.10623C13.6555 7.22298 13.4978 7.28952 13.3327 7.29168V7.29168Z" fill="#1E1E1E"/>
<path d="M12.916 17.2917H7.08268C6.80642 17.2917 6.54146 17.1819 6.34611 16.9866C6.15076 16.7912 6.04102 16.5263 6.04102 16.25V10.4167C6.04102 10.1404 6.15076 9.87545 6.34611 9.6801C6.54146 9.48475 6.80642 9.375 7.08268 9.375H12.916C13.1923 9.375 13.4572 9.48475 13.6526 9.6801C13.8479 9.87545 13.9577 10.1404 13.9577 10.4167V16.25C13.9577 16.5263 13.8479 16.7912 13.6526 16.9866C13.4572 17.1819 13.1923 17.2917 12.916 17.2917ZM7.29102 16.0417H12.7077V10.625H7.29102V16.0417Z" fill="#1E1E1E"/>
</svg>
