<svg width="52" height="53" viewBox="0 0 52 53" fill="none" xmlns="http://www.w3.org/2000/svg">
<path d="M2.09543 18.6641L26 1.2964L49.9046 18.6641L40.7738 46.7656H11.2262L2.09543 18.6641Z" stroke="#0D1B2A" stroke-width="1.4"/>
<path fill-rule="evenodd" clip-rule="evenodd" d="M19.3335 23.0978C18.8733 23.0978 18.5002 23.4709 18.5002 23.9311V32.2644C18.5002 32.7247 18.8733 33.0978 19.3335 33.0978H32.6668C33.1271 33.0978 33.5002 32.7247 33.5002 32.2644V23.9311C33.5002 23.4709 33.1271 23.0978 32.6668 23.0978H19.3335ZM16.8335 23.9311C16.8335 22.5504 17.9528 21.4311 19.3335 21.4311H32.6668C34.0475 21.4311 35.1668 22.5504 35.1668 23.9311V32.2644C35.1668 33.6452 34.0475 34.7644 32.6668 34.7644H19.3335C17.9528 34.7644 16.8335 33.6452 16.8335 32.2644V23.9311Z" fill="#0D1B2A"/>
<path fill-rule="evenodd" clip-rule="evenodd" d="M22.5657 18.83C23.0346 18.3612 23.6705 18.0978 24.3335 18.0978H27.6668C28.3299 18.0978 28.9658 18.3612 29.4346 18.83C29.9034 19.2989 30.1668 19.9347 30.1668 20.5978V33.9311C30.1668 34.3913 29.7937 34.7644 29.3335 34.7644C28.8733 34.7644 28.5002 34.3913 28.5002 33.9311V20.5978C28.5002 20.3768 28.4124 20.1648 28.2561 20.0085C28.0998 19.8522 27.8878 19.7644 27.6668 19.7644H24.3335C24.1125 19.7644 23.9005 19.8522 23.7442 20.0085C23.588 20.1648 23.5002 20.3768 23.5002 20.5978V33.9311C23.5002 34.3913 23.1271 34.7644 22.6668 34.7644C22.2066 34.7644 21.8335 34.3913 21.8335 33.9311V20.5978C21.8335 19.9347 22.0969 19.2989 22.5657 18.83Z" fill="#0D1B2A"/>
</svg>
