<svg width="29" height="28" viewBox="0 0 29 28" fill="none" xmlns="http://www.w3.org/2000/svg">
<g clip-path="url(#clip0_140_1165)" filter="url(#filter0_d_140_1165)">
<path d="M10.5001 0H8.00008C7.11603 0 6.26818 0.35119 5.64306 0.976311C5.01794 1.60143 4.66675 2.44928 4.66675 3.33333L4.66675 5.83333C4.66675 6.71739 5.01794 7.56524 5.64306 8.19036C6.26818 8.81548 7.11603 9.16667 8.00008 9.16667H10.5001C11.3841 9.16667 12.232 8.81548 12.8571 8.19036C13.4822 7.56524 13.8334 6.71739 13.8334 5.83333V3.33333C13.8334 2.44928 13.4822 1.60143 12.8571 0.976311C12.232 0.35119 11.3841 0 10.5001 0V0ZM12.1667 5.83333C12.1667 6.27536 11.9912 6.69928 11.6786 7.01184C11.366 7.32441 10.9421 7.5 10.5001 7.5H8.00008C7.55805 7.5 7.13413 7.32441 6.82157 7.01184C6.50901 6.69928 6.33341 6.27536 6.33341 5.83333V3.33333C6.33341 2.89131 6.50901 2.46738 6.82157 2.15482C7.13413 1.84226 7.55805 1.66667 8.00008 1.66667H10.5001C10.9421 1.66667 11.366 1.84226 11.6786 2.15482C11.9912 2.46738 12.1667 2.89131 12.1667 3.33333V5.83333Z" fill="#4B5563"/>
<path d="M21.3333 0H18.8333C17.9493 0 17.1014 0.35119 16.4763 0.976311C15.8512 1.60143 15.5 2.44928 15.5 3.33334V5.83334C15.5 6.71739 15.8512 7.56524 16.4763 8.19036C17.1014 8.81548 17.9493 9.16667 18.8333 9.16667H21.3333C22.2174 9.16667 23.0652 8.81548 23.6904 8.19036C24.3155 7.56524 24.6667 6.71739 24.6667 5.83334V3.33334C24.6667 2.44928 24.3155 1.60143 23.6904 0.976311C23.0652 0.35119 22.2174 0 21.3333 0V0ZM23 5.83334C23 6.27537 22.8244 6.69929 22.5119 7.01185C22.1993 7.32441 21.7754 7.50001 21.3333 7.50001H18.8333C18.3913 7.50001 17.9674 7.32441 17.6548 7.01185C17.3423 6.69929 17.1667 6.27537 17.1667 5.83334V3.33334C17.1667 2.89131 17.3423 2.46738 17.6548 2.15482C17.9674 1.84226 18.3913 1.66667 18.8333 1.66667H21.3333C21.7754 1.66667 22.1993 1.84226 22.5119 2.15482C22.8244 2.46738 23 2.89131 23 3.33334V5.83334Z" fill="#4B5563"/>
<path d="M10.5001 10.8333H8.00008C7.11603 10.8333 6.26818 11.1845 5.64306 11.8096C5.01794 12.4348 4.66675 13.2826 4.66675 14.1667L4.66675 16.6667C4.66675 17.5507 5.01794 18.3986 5.64306 19.0237C6.26818 19.6488 7.11603 20 8.00008 20H10.5001C11.3841 20 12.232 19.6488 12.8571 19.0237C13.4822 18.3986 13.8334 17.5507 13.8334 16.6667V14.1667C13.8334 13.2826 13.4822 12.4348 12.8571 11.8096C12.232 11.1845 11.3841 10.8333 10.5001 10.8333ZM12.1668 16.6667C12.1668 17.1087 11.9912 17.5326 11.6786 17.8452C11.366 18.1577 10.9421 18.3333 10.5001 18.3333H8.00008C7.55806 18.3333 7.13413 18.1577 6.82157 17.8452C6.50901 17.5326 6.33342 17.1087 6.33342 16.6667V14.1667C6.33342 13.7246 6.50901 13.3007 6.82157 12.9882C7.13413 12.6756 7.55806 12.5 8.00008 12.5H10.5001C10.9421 12.5 11.366 12.6756 11.6786 12.9882C11.9912 13.3007 12.1668 13.7246 12.1668 14.1667V16.6667Z" fill="#4B5563"/>
<path d="M21.3333 10.8333H18.8333C17.9493 10.8333 17.1014 11.1845 16.4763 11.8096C15.8512 12.4348 15.5 13.2826 15.5 14.1667V16.6667C15.5 17.5507 15.8512 18.3986 16.4763 19.0237C17.1014 19.6488 17.9493 20 18.8333 20H21.3333C22.2174 20 23.0652 19.6488 23.6904 19.0237C24.3155 18.3986 24.6667 17.5507 24.6667 16.6667V14.1667C24.6667 13.2826 24.3155 12.4348 23.6904 11.8096C23.0652 11.1845 22.2174 10.8333 21.3333 10.8333ZM23 16.6667C23 17.1087 22.8244 17.5326 22.5119 17.8452C22.1993 18.1577 21.7754 18.3333 21.3333 18.3333H18.8333C18.3913 18.3333 17.9674 18.1577 17.6548 17.8452C17.3423 17.5326 17.1667 17.1087 17.1667 16.6667V14.1667C17.1667 13.7246 17.3423 13.3007 17.6548 12.9882C17.9674 12.6756 18.3913 12.5 18.8333 12.5H21.3333C21.7754 12.5 22.1993 12.6756 22.5119 12.9882C22.8244 13.3007 23 13.7246 23 14.1667V16.6667Z" fill="#4B5563"/>
</g>
<defs>
<filter id="filter0_d_140_1165" x="0.666748" y="0" width="28" height="28" filterUnits="userSpaceOnUse" color-interpolation-filters="sRGB">
<feFlood flood-opacity="0" result="BackgroundImageFix"/>
<feColorMatrix in="SourceAlpha" type="matrix" values="0 0 0 0 0 0 0 0 0 0 0 0 0 0 0 0 0 0 127 0" result="hardAlpha"/>
<feOffset dy="4"/>
<feGaussianBlur stdDeviation="2"/>
<feComposite in2="hardAlpha" operator="out"/>
<feColorMatrix type="matrix" values="0 0 0 0 0 0 0 0 0 0 0 0 0 0 0 0 0 0 0.25 0"/>
<feBlend mode="normal" in2="BackgroundImageFix" result="effect1_dropShadow_140_1165"/>
<feBlend mode="normal" in="SourceGraphic" in2="effect1_dropShadow_140_1165" result="shape"/>
</filter>
<clipPath id="clip0_140_1165">
<rect width="20" height="20" fill="white" transform="translate(4.66675)"/>
</clipPath>
</defs>
</svg>
