<svg width="21" height="20" viewBox="0 0 21 20" fill="none" xmlns="http://www.w3.org/2000/svg">
<g clip-path="url(#clip0_140_1176)">
<path d="M1.50008 3.95829H3.78008C3.95894 4.6164 4.34939 5.19736 4.89119 5.61156C5.43298 6.02576 6.09601 6.25017 6.778 6.25017C7.45998 6.25017 8.12301 6.02576 8.66481 5.61156C9.2066 5.19736 9.59705 4.6164 9.77591 3.95829H19.8334C20.0544 3.95829 20.2664 3.87049 20.4227 3.71421C20.5789 3.55793 20.6667 3.34597 20.6667 3.12495C20.6667 2.90394 20.5789 2.69198 20.4227 2.5357C20.2664 2.37942 20.0544 2.29162 19.8334 2.29162H9.77591C9.59705 1.63351 9.2066 1.05254 8.66481 0.638347C8.12301 0.22415 7.45998 -0.000259399 6.778 -0.000259399C6.09601 -0.000259399 5.43298 0.22415 4.89119 0.638347C4.34939 1.05254 3.95894 1.63351 3.78008 2.29162H1.50008C1.27907 2.29162 1.06711 2.37942 0.910826 2.5357C0.754545 2.69198 0.666748 2.90394 0.666748 3.12495C0.666748 3.34597 0.754545 3.55793 0.910826 3.71421C1.06711 3.87049 1.27907 3.95829 1.50008 3.95829ZM6.77758 1.66662C7.06601 1.66662 7.34796 1.75215 7.58779 1.91239C7.82761 2.07264 8.01452 2.3004 8.1249 2.56687C8.23528 2.83335 8.26416 3.12657 8.20789 3.40946C8.15162 3.69235 8.01273 3.9522 7.80878 4.15615C7.60482 4.3601 7.34497 4.49899 7.06209 4.55526C6.7792 4.61153 6.48597 4.58265 6.2195 4.47228C5.95302 4.3619 5.72526 4.17498 5.56502 3.93516C5.40478 3.69534 5.31925 3.41338 5.31925 3.12495C5.31969 2.73832 5.47347 2.36764 5.74687 2.09424C6.02026 1.82085 6.39094 1.66706 6.77758 1.66662Z" fill="#07003B"/>
<path d="M19.8334 9.16667H17.5534C17.3748 8.50841 16.9846 7.92723 16.4428 7.51286C15.901 7.09849 15.238 6.87398 14.5559 6.87398C13.8739 6.87398 13.2108 7.09849 12.669 7.51286C12.1273 7.92723 11.737 8.50841 11.5584 9.16667H1.50008C1.27907 9.16667 1.06711 9.25447 0.910826 9.41075C0.754545 9.56703 0.666748 9.77899 0.666748 10C0.666748 10.221 0.754545 10.433 0.910826 10.5893C1.06711 10.7455 1.27907 10.8333 1.50008 10.8333H11.5584C11.737 11.4916 12.1273 12.0728 12.669 12.4872C13.2108 12.9015 13.8739 13.126 14.5559 13.126C15.238 13.126 15.901 12.9015 16.4428 12.4872C16.9846 12.0728 17.3748 11.4916 17.5534 10.8333H19.8334C20.0544 10.8333 20.2664 10.7455 20.4227 10.5893C20.5789 10.433 20.6667 10.221 20.6667 10C20.6667 9.77899 20.5789 9.56703 20.4227 9.41075C20.2664 9.25447 20.0544 9.16667 19.8334 9.16667ZM14.5559 11.4583C14.2675 11.4583 13.9855 11.3728 13.7457 11.2126C13.5059 11.0523 13.319 10.8246 13.2086 10.5581C13.0982 10.2916 13.0693 9.99839 13.1256 9.7155C13.1819 9.43261 13.3208 9.17276 13.5247 8.96881C13.7287 8.76486 13.9885 8.62596 14.2714 8.56969C14.5543 8.51342 14.8475 8.5423 15.114 8.65268C15.3805 8.76306 15.6082 8.94998 15.7685 9.1898C15.9287 9.42962 16.0142 9.71158 16.0142 10C16.0138 10.3866 15.86 10.7573 15.5866 11.0307C15.3132 11.3041 14.9425 11.4579 14.5559 11.4583Z" fill="#07003B"/>
<path d="M19.8334 16.0417H9.77591C9.59705 15.3836 9.2066 14.8026 8.66481 14.3884C8.12301 13.9742 7.45998 13.7498 6.778 13.7498C6.09601 13.7498 5.43298 13.9742 4.89119 14.3884C4.34939 14.8026 3.95894 15.3836 3.78008 16.0417H1.50008C1.27907 16.0417 1.06711 16.1295 0.910826 16.2857C0.754545 16.442 0.666748 16.654 0.666748 16.875C0.666748 17.096 0.754545 17.308 0.910826 17.4643C1.06711 17.6205 1.27907 17.7083 1.50008 17.7083H3.78008C3.95894 18.3664 4.34939 18.9474 4.89119 19.3616C5.43298 19.7758 6.09601 20.0002 6.778 20.0002C7.45998 20.0002 8.12301 19.7758 8.66481 19.3616C9.2066 18.9474 9.59705 18.3664 9.77591 17.7083H19.8334C20.0544 17.7083 20.2664 17.6205 20.4227 17.4643C20.5789 17.308 20.6667 17.096 20.6667 16.875C20.6667 16.654 20.5789 16.442 20.4227 16.2857C20.2664 16.1295 20.0544 16.0417 19.8334 16.0417ZM6.77758 18.3333C6.48915 18.3333 6.20719 18.2478 5.96737 18.0876C5.72755 17.9273 5.54063 17.6996 5.43026 17.4331C5.31988 17.1666 5.291 16.8734 5.34727 16.5905C5.40354 16.3076 5.54243 16.0478 5.74638 15.8438C5.95033 15.6399 6.21018 15.501 6.49307 15.4447C6.77596 15.3884 7.06918 15.4173 7.33566 15.5277C7.60213 15.6381 7.82989 15.825 7.99014 16.0648C8.15038 16.3046 8.23591 16.5866 8.23591 16.875C8.23525 17.2616 8.08139 17.6321 7.80805 17.9055C7.5347 18.1788 7.16415 18.3327 6.77758 18.3333Z" fill="#07003B"/>
</g>
<defs>
<clipPath id="clip0_140_1176">
<rect width="20" height="20" fill="white" transform="translate(0.666748)"/>
</clipPath>
</defs>
</svg>
