<?xml version="1.0" encoding="utf-8" standalone="no"?>
<svg width="17" height="16" viewBox="0 0 17 16" fill="none" xmlns="http://www.w3.org/2000/svg">
<path d="M5.80342 14.8326L5.80352 14.8326C6.70319 15.2211 7.66654 15.4167 8.69865 15.4167C9.73075 15.4167 10.6944 15.2211 11.5947 14.8326C12.5046 14.4397 13.2878 13.9121 13.9493 13.2506C14.6107 12.5892 15.1383 11.8057 15.5312 10.8952L15.5313 10.8951C15.9197 9.99547 16.1153 9.03211 16.1153 8.00001C16.1153 6.96791 15.9197 6.00424 15.5312 5.10395C15.1384 4.19407 14.6107 3.41087 13.9493 2.7494C13.2878 2.08792 12.5046 1.5603 11.5947 1.16742L5.80342 14.8326ZM5.80342 14.8326C4.89295 14.4397 4.10948 13.9121 3.44804 13.2506C2.78659 12.5892 2.25896 11.8057 1.86606 10.8952L1.86602 10.8951M5.80342 14.8326L1.86602 10.8951M1.86602 10.8951C1.47756 9.99547 1.28198 9.03211 1.28198 8.00001C1.28198 6.96791 1.47756 6.00424 1.86606 5.10395C2.25894 4.19407 2.78656 3.41087 3.44804 2.7494C4.10948 2.08795 4.89295 1.56032 5.80342 1.16742L5.80352 1.16738M1.86602 10.8951L5.80352 1.16738M5.80352 1.16738C6.70319 0.778921 7.66654 0.583344 8.69865 0.583344M5.80352 1.16738L8.69865 0.583344M8.69865 0.583344C9.73072 0.583344 10.6944 0.778907 11.5946 1.16738L8.69865 0.583344ZM9.32365 8.12501H8.82365V8.62501V11.4583H8.57365V8.62501V8.12501H8.07365H5.24032V7.87501H8.07365H8.57365V7.37501V4.54168H8.82365V7.37501V7.87501H9.32365H12.157V8.12501H9.32365ZM8.69865 15.1667C10.6896 15.1667 12.394 14.4701 13.7814 13.0827C15.1688 11.6953 15.8653 9.99093 15.8653 8.00001C15.8653 6.00909 15.1688 4.30469 13.7814 2.91729C12.394 1.52989 10.6896 0.833344 8.69865 0.833344C6.70773 0.833344 5.00333 1.52989 3.61593 2.91729C2.22853 4.30469 1.53198 6.00909 1.53198 8.00001C1.53198 9.99093 2.22853 11.6953 3.61593 13.0827C5.00333 14.4701 6.70773 15.1667 8.69865 15.1667Z" stroke="white"/>
</svg>
